# xmcd CD database file
#
# Track frame offsets:
#	150
#	11023
#	22095
#	34085
#	46463
#	60073
#	69940
#	80468
#	91665
#	101930
#	117248
#	129730
#	138233
#	149823
#	160293
#	175340
#	191010
#	204428
#
# Disc length: 2840 seconds
#
# Revision: 0
# Processed by: cddbd v1.5PL3 Copyright (c) Steve Scherf et al.
# Submitted via: CDex 1.51
#
DISCID=fb0b1612
DTITLE=Various Artist - CryingTime
DYEAR=1992
DGENRE=Country
TTITLE0=George Jones - Tender Years
TTITLE1=Farrow Young - Crying Time
TTITLE2=Jim Reeves - Your Old love letters
TTITLE3=Johnny Paycheck - Almost Persuaded
TTITLE4=Willy Nelson - Undo The Wrong
TTITLE5=Carl Perkins - This Ole House
TTITLE6=Faron Young - Here Comes My Baby back again
TTITLE7=Johnny Russell - King Of The Road 
TTITLE8=Porter Wagoner - Green green grass Of Home
TTITLE9=Boxcar Willy - I Love You Because
TTITLE10=Johnny Russell All I Have to offer You Is Me
TTITLE11=Sonny James - Bimbo
TTITLE12=Johnny Paycheck - Release Me
TTITLE13=Jim Reeves - Just Call Me Lonesome
TTITLE14=Narvel Felts - Everything is Beautiful
TTITLE15=Don Williams - Tears
TTITLE16=Freddy Fender -  The Girl Who Waits On Tables
TTITLE17=Waylon Jennings - Love's Gonna Live Here
EXTD=YEAR: 1992
EXTT0=
EXTT1=
EXTT2=
EXTT3=
EXTT4=
EXTT5=
EXTT6=
EXTT7=
EXTT8=
EXTT9=
EXTT10=
EXTT11=
EXTT12=
EXTT13=
EXTT14=
EXTT15=
EXTT16=
EXTT17=
PLAYORDER=
